<?xml version="1.0" encoding="UTF-8"?>
<svg width="37.77" height="37.77" version="1.1" viewBox="0 0 9.9932 9.9932" xmlns="http://www.w3.org/2000/svg">
 <g transform="translate(-90.174 -106.6)">
  <rect x="90.174" y="106.6" width="9.9932" height="9.9932" ry="1.3709" fill="#0082c9"/>
  <path d="m95.243 108.19c-0.25593-5e-3 -0.5146 0.0602-0.74694 0.19704-0.57194 0.33684-0.8371 1.0266-0.63789 1.6598 0.08709 0.27684 0.25302 0.51199 0.46777 0.68444l-1.0898 1.8875a0.52806 0.52806 0 0 0-0.55552 0.25483 0.52806 0.52806 0 0 0 0.19329 0.72121 0.52806 0.52806 0 0 0 0.72143-0.19306 0.52806 0.52806 0 0 0-0.05735-0.60887l1.0844-1.8783c0.21638 0.10021 0.45921 0.14762 0.70926 0.12823l-0.03534-0.4514c-0.45413 0.0352-0.86974-0.24574-1.0064-0.68025-0.1367-0.43449 0.0437-0.90282 0.43618-1.134 0.39242-0.23127 0.8886-0.16082 1.2023 0.16942 0.3137 0.33026 0.35841 0.82969 0.1074 1.2098l0.37744 0.24968c0.36577-0.55389 0.3006-1.2902-0.15654-1.7714-0.08571-0.0902-0.18122-0.16749-0.28337-0.23073-0.22133-0.13701-0.47439-0.20968-0.73033-0.21388zm-0.0136 0.89014a0.52806 0.52806 0 0 0-0.26699 0.0706 0.52806 0.52806 0 0 0-0.19329 0.72119 0.52806 0.52806 0 0 0 0.55575 0.2546l1.0844 1.8786c-0.19496 0.1373-0.35742 0.32391-0.46566 0.55015l0.4088 0.19492c0.19658-0.41088 0.64769-0.63027 1.0923-0.53141 0.44463 0.0988 0.76007 0.48919 0.76402 0.94467 0.0041 0.45548-0.30501 0.85004-0.74787 0.95661-0.44286 0.10653-0.89778-0.10455-1.1015-0.51201l-0.40506 0.20219c0.2968 0.5937 0.96717 0.90525 1.6125 0.74998 0.121-0.0291 0.23534-0.0731 0.34118-0.12988 0.45865-0.24633 0.75817-0.73182 0.7535-1.2711-0.0058-0.66374-0.47061-1.2382-1.1185-1.3823-0.28332-0.0631-0.56999-0.0368-0.82674 0.0629l-1.0897-1.8874a0.52806 0.52806 0 0 0 0.05735-0.60864 0.52806 0.52806 0 0 0-0.45444-0.26373zm-2.1587 2.6627c-0.61309 0.0162-1.1557 0.4268-1.3322 1.0235-0.03528 0.11929-0.05433 0.2405-0.05803 0.36058-0.01601 0.52038 0.25463 1.0224 0.724 1.288 0.57769 0.32689 1.3077 0.21158 1.7564-0.27752 0.19621-0.21387 0.31674-0.4752 0.35872-0.7474h2.1795a0.52806 0.52806 0 0 0 0.49843 0.3538 0.52806 0.52806 0 0 0 0.52791-0.52814 0.52806 0.52806 0 0 0-0.52791-0.52815 0.52806 0.52806 0 0 0-0.49843 0.35404h-2.169c-0.02144-0.23747-0.10179-0.47149-0.2436-0.67836l-0.37323 0.25645c0.25755 0.37571 0.22206 0.87605-0.08588 1.2117-0.30793 0.33563-0.80377 0.41364-1.2002 0.18932-0.39643-0.22433-0.58359-0.68922-0.45444-1.126 0.12916-0.4368 0.53937-0.72511 0.99404-0.69779l0.02738-0.45186c-0.04137-1e-3 -0.08267-2e-3 -0.12355-1e-3z" fill="#fff"/>
 </g>
</svg>
