<?xml version="1.0" encoding="UTF-8"?>
<svg width="37.77" height="37.77" version="1.1" viewBox="0 0 9.9932 9.9932" xmlns="http://www.w3.org/2000/svg">
 <g transform="translate(-90.174 -106.6)">
  <path d="m95.273 106.99c-0.36349-7e-3 -0.73086 0.0855-1.0609 0.27984-0.81231 0.47841-1.1889 1.4581-0.90598 2.3574 0.12369 0.39318 0.35936 0.72716 0.66437 0.97208l-1.5478 2.6807a0.74999 0.74999 0 0 0-0.78899 0.36192 0.74999 0.74999 0 0 0 0.27453 1.0243 0.74999 0.74999 0 0 0 1.0246-0.27419 0.74999 0.74999 0 0 0-0.08145-0.86477l1.5401-2.6678c0.30732 0.14233 0.65221 0.20967 1.0073 0.18213l-0.05019-0.64112c-0.64499 0.05-1.2353-0.34901-1.4294-0.96613-0.19415-0.6171 0.06207-1.2822 0.6195-1.6106 0.55734-0.32846 1.262-0.2284 1.7076 0.24063 0.44555 0.46906 0.50903 1.1784 0.15254 1.7182l0.53607 0.35462c0.51949-0.78668 0.42693-1.8324-0.22234-2.5159-0.12173-0.12811-0.25739-0.23788-0.40247-0.3277-0.31435-0.19459-0.67377-0.2978-1.0373-0.30376zm-0.01932 1.2642a0.74999 0.74999 0 0 0-0.3792 0.10024 0.74999 0.74999 0 0 0-0.27452 1.0243 0.74999 0.74999 0 0 0 0.78932 0.3616l1.5401 2.6681c-0.27689 0.19501-0.50764 0.46005-0.66137 0.78137l0.58061 0.27684c0.2792-0.58357 0.91989-0.89515 1.5514-0.75475 0.6315 0.14032 1.0795 0.69478 1.0851 1.3417 0.0059 0.6469-0.4332 1.2073-1.0622 1.3586-0.62898 0.1513-1.2751-0.14849-1.5644-0.72719l-0.5753 0.28716c0.42154 0.84322 1.3736 1.2857 2.2902 1.0652 0.17185-0.0414 0.33424-0.10379 0.48456-0.18447 0.6514-0.34985 1.0768-1.0394 1.0702-1.8053-8e-3 -0.94269-0.66839-1.7586-1.5886-1.9632-0.40239-0.0896-0.80954-0.0522-1.1742 0.0894l-1.5477-2.6807a0.74999 0.74999 0 0 0 0.08145-0.86444 0.74999 0.74999 0 0 0-0.64542-0.37457zm-3.0659 3.7818c-0.87076 0.0231-1.6415 0.60617-1.8921 1.4537-0.05011 0.16942-0.07717 0.34157-0.08241 0.51211-0.02273 0.73909 0.36165 1.452 1.0283 1.8293 0.82048 0.46427 1.8573 0.30049 2.4946-0.39415 0.27868-0.30376 0.44985-0.67492 0.50949-1.0615h3.0955a0.74999 0.74999 0 0 0 0.70791 0.50248 0.74999 0.74999 0 0 0 0.74978-0.75009 0.74999 0.74999 0 0 0-0.74978-0.75013 0.74999 0.74999 0 0 0-0.70791 0.50284h-3.0805c-0.03045-0.33728-0.14456-0.66964-0.34598-0.96346l-0.53009 0.36424c0.3658 0.53361 0.31538 1.2442-0.12197 1.7209-0.43735 0.47668-1.1416 0.58748-1.7046 0.26888-0.56304-0.3186-0.82885-0.97887-0.64542-1.5993 0.18343-0.62037 0.76605-1.0298 1.4118-0.99105l0.03889-0.64176c-0.05876-1e-3 -0.11741-3e-3 -0.17548-1e-3z" fill="#fff"/>
 </g>
</svg>
